<svg id="Layer_1" data-name="Layer 1" xmlns="http://www.w3.org/2000/svg" viewBox="0 0 576 576"><defs><style>.cls-1{fill:#fff;}</style></defs><title>icons</title><path class="cls-1" d="M0,287.83C0,128.61,129.2-.56,288.27-.32S576,128.84,576,287.78c0,159.24-129.4,288.6-288.28,288.22C128.62,575.62,0,446.81,0,287.83ZM258.13,272.1c2.5-1.08,4.39-1.94,6.31-2.72a38.29,38.29,0,0,0,20.86-19.32c12.46-25.73,1.77-62.19-22.59-77.11-12.73-7.8-26.77-10.32-41.49-10.3q-58.92.09-117.84,0c-1.88,0-3.75.23-5.65.36V402.59c1.62.11,2.69.25,3.75.25,40.79,0,81.58.07,122.37-.07a84.66,84.66,0,0,0,16.7-1.69c28.11-5.8,49.24-20.08,55.59-49.74a102.64,102.64,0,0,0,1.58-32.1C294.59,290.7,282.91,277.35,258.13,272.1Zm227.44,56c-1.19-13.77-1.21-26.55-3.57-38.89-6-31.49-22.82-54.44-55.36-62.22a122.75,122.75,0,0,0-33.36-2.89c-30.86,1.31-56.06,13.74-71.42,41.64-14.71,26.71-18.15,55.1-9.16,84.45,8.63,28.19,27.31,46.4,56,53.87,18.88,4.92,38,5.18,57.14,1.85,13.31-2.32,25.84-6.92,36.46-15.66,14.31-11.78,20.21-27.23,20.13-45.7h-42c-1.3,11.33-7.61,18.45-17.82,22-12.57,4.39-25.39,5-38.11.71-16.6-5.54-27.59-23.33-24-39.18ZM447.26,206V177.41H349V206Z"/><path class="cls-1" d="M152.47,296.27c24.37,0,48.27-.46,72.15.22,10.15.29,16.89,7.19,20.29,16.62a46,46,0,0,1,.89,28.61c-2.87,10.17-9.84,17.23-20,17.6-24.26.89-48.58.29-73.27.29Z"/><path class="cls-1" d="M152.32,258.71V205.79c2.27-.14,4.33-.37,6.4-.37q29.76,0,59.52,0c11.57,0,18.67,5.21,20,16.64a82.8,82.8,0,0,1-1.14,23.68c-1.37,7.66-6.92,12.76-15,12.87C199.06,258.91,176,258.71,152.32,258.71Z"/><path class="cls-1" d="M437.38,295.74H360c.11-14.85,14.64-37.42,41.83-36.89C423.29,259.26,438.32,274.52,437.38,295.74Z"/></svg>