<svg id="Layer_1" data-name="Layer 1" xmlns="http://www.w3.org/2000/svg" viewBox="0 0 576 576"><defs><style>.cls-1{fill:#fff;}</style></defs><title>icons</title><path class="cls-1" d="M397.8,576V353h74.55l11.19-86.81H397.89c-.13-1.75-.32-3-.32-4.34,0-17.85,0-35.7,0-53.55a73.22,73.22,0,0,1,.82-10.74c2.63-17.14,11.91-26.36,29.3-28.32,8.31-.94,16.75-.85,25.14-1,11.07-.15,22.14,0,33.5,0V90.36c-7-.59-14.11-1.58-21.24-1.72-20.82-.39-41.75-1.92-62.44-.34-50.31,3.84-86.33,38.88-93.07,88.9a221.73,221.73,0,0,0-1.82,26.44c-.27,19-.08,38.1-.08,57.14v5.31H233v86.69h74.4V576H33.22C13.66,576,0,562.45,0,543Q0,288.06,0,33.16C0,13.72,13.73,0,33.18,0Q288.09,0,543,0c19.48,0,33,13.66,33,33.22q0,254.68,0,509.36c0,20-13.35,33.39-33.19,33.4q-70.19,0-140.39,0Z"/></svg>