<svg id="Layer_1" data-name="Layer 1" xmlns="http://www.w3.org/2000/svg" viewBox="0 0 576 576"><defs><style>.cls-1{fill:#fff;}</style></defs><title>icons</title><path class="cls-1" d="M428.95,576.18H148.39c-1.82-.34-3.62-.79-5.45-1-15.71-1.73-31.08-5.21-45.33-11.94-61.72-29.18-95-78-95.95-146.39C.48,331.59,1.34,246.29,1.41,161c0-27.62,6.11-54,20.16-77.78C53.24,29.52,100.69,2,163,1.71c83.79-.45,167.58-.21,251.37,0,10.79,0,21.83.6,32.32,2.91C511.78,19,553.38,58.59,571.25,122.79c2.34,8.39,3.18,17.2,4.71,25.82V429.17c-.93,5.87-1.55,11.81-2.85,17.6-14.64,65.1-54,106.84-118.38,124.7C446.34,573.81,437.55,574.65,428.95,576.18ZM288.66,525.24q62.27,0,124.54,0c13.14,0,26.11-1.33,38.6-5.78,45.5-16.2,73.08-55.38,73.18-104.74.16-83.77.28-167.55-.21-251.32A121.21,121.21,0,0,0,519,126C503.51,80,463.72,52.64,414.06,52.57c-83.59-.11-167.18-.26-250.76.22-12.51.07-25.59,1.78-37.41,5.73-45.74,15.31-73.4,55-73.52,104.27q-.31,126.22,0,252.44c.07,37.44,15,67.72,45.35,89.93,19.53,14.3,41.81,20.13,65.84,20.09Q226.11,525.15,288.66,525.24Z"/><path class="cls-1" d="M288.93,140.82c81.55.33,148.32,67.4,147.81,148.48C436.23,371,369.12,437.65,288.13,437c-81.57-.69-147.69-67.11-147.53-148.2C140.76,207.33,207.77,140.49,288.93,140.82Zm0,245.06c53.72-.39,97.1-44,96.72-97.26-.39-53.73-44-97.1-97.26-96.71-53.73.39-97.1,44-96.71,97.26C192.07,342.89,235.69,386.26,288.94,385.88Z"/><path class="cls-1" d="M442.93,172.27c-20.53,0-37.7-17.26-37.38-37.56A37.54,37.54,0,0,1,443,97.77c20.6,0,37.71,17.2,37.37,37.53A37.62,37.62,0,0,1,442.93,172.27Z"/></svg>