<svg id="Layer_1" data-name="Layer 1" xmlns="http://www.w3.org/2000/svg" viewBox="0 0 576 576"><defs><style>.cls-1{fill:#fff;}</style></defs><title>icons</title><path class="cls-1" d="M288.75,0Q392.56,0,496.37,0C541.83,0,576,34.1,576,79.67q.08,208.32,0,416.64c0,45.44-34.32,79.67-79.67,79.68Q288,576,79.69,576C34.35,576,0,541.64,0,496.28Q0,288,0,79.63C0,34.26,34.31,0,79.73,0Q184.24,0,288.75,0Zm243,288.73q0-103.81,0-207.62c0-23.64-13.2-36.81-36.88-36.81q-206.92,0-413.85,0c-23.51,0-36.68,13.3-36.68,37q0,206.58,0,413.16c0,24,13.19,37.19,37.25,37.19H494c24.66,0,37.7-12.93,37.7-37.4Q531.75,391.51,531.74,288.74Z"/><path class="cls-1" d="M487.16,487.05H398.77c0-2.79,0-5.26,0-7.73,0-41.52.27-83-.19-124.55a142.06,142.06,0,0,0-4.14-32c-3.11-12.67-12.07-21.31-25.19-22.45-10.55-.92-21.9-.8-31.92,2.16-18.18,5.37-23.57,21.34-25.66,38.31a228,228,0,0,0-1.45,26.91c-.15,37.13-.06,74.27-.07,111.4,0,2.5,0,5,0,7.89H221.88V222.08h88v37.48c1.28-.62,2.06-.73,2.29-1.14,13.07-23.6,34.21-34,60-36.28,20.19-1.8,40.12-.36,59.21,7.1,29.6,11.56,44.14,35.34,50.07,64.83a278.61,278.61,0,0,1,5.58,50c.76,46.12.31,92.26.33,138.39C487.37,483.85,487.25,485.2,487.16,487.05Z"/><path class="cls-1" d="M176.74,487.07H89v-265h87.76Z"/><path class="cls-1" d="M88.63,132.51a44.3,44.3,0,1,1,44.07,44.71A44.28,44.28,0,0,1,88.63,132.51Z"/></svg>